<svg xmlns="http://www.w3.org/2000/svg" fill="none" viewBox="0 0 24 24">
  <mask id="a" width="24" height="24" x="0" y="0" maskUnits="userSpaceOnUse" style="mask-type:alpha">
    <path fill="#E74C3C" d="M0 0h24v24H0z"/>
  </mask>
  <g mask="url(#a)">
    <path fill="#E74C3C" d="M12 17a.968.968 0 0 0 .713-.288A.967.967 0 0 0 13 16a.97.97 0 0 0-.287-.713A.97.97 0 0 0 12 15a.967.967 0 0 0-.712.287A.968.968 0 0 0 11 16c0 .283.096.52.288.712A.965.965 0 0 0 12 17Zm-1-4h2V7h-2v6Zm-2.75 8L3 15.75v-7.5L8.25 3h7.5L21 8.25v7.5L15.75 21h-7.5Zm.85-2h5.8l4.1-4.1V9.1L14.9 5H9.1L5 9.1v5.8L9.1 19Z"/>
  </g>
</svg>
