<svg xmlns="http://www.w3.org/2000/svg" fill="none" viewBox="0 0 16 17">
  <mask id="a" width="16" height="17" x="0" y="0" maskUnits="userSpaceOnUse" style="mask-type:alpha">
    <path fill="#636E72" d="M0 .5h16v16H0z"/>
  </mask>
  <g mask="url(#a)">
    <path fill="#636E72" d="M2.667 13.833c-.367 0-.68-.13-.942-.391a1.285 1.285 0 0 1-.392-.942v-8c0-.367.13-.68.392-.941.261-.262.575-.392.942-.392h10.666c.367 0 .68.13.942.392.261.26.392.574.392.941v8c0 .367-.13.68-.392.942-.261.26-.575.391-.942.391H2.667Zm0-1.333h10.666V5.833H2.667V12.5ZM5 11.833l-.933-.933 1.716-1.733L4.05 7.433 5 6.5l2.667 2.667L5 11.833Zm3 0V10.5h4v1.333H8Z"/>
  </g>
</svg>
