<svg xmlns="http://www.w3.org/2000/svg" fill="none" viewBox="0 0 31 31">
  <g clip-path="url(#a)">
    <path fill="#2D3436" d="M15.25.871c-8.287 0-15 6.716-15 15 0 6.629 4.298 12.25 10.256 14.231.75.142 1.025-.322 1.025-.72 0-.357-.012-1.3-.019-2.55-4.172.904-5.052-2.013-5.052-2.013-.683-1.732-1.669-2.194-1.669-2.194-1.359-.93.105-.911.105-.911 1.506.105 2.298 1.545 2.298 1.545 1.337 2.293 3.511 1.63 4.369 1.247.134-.97.52-1.631.95-2.006-3.332-.375-6.833-1.665-6.833-7.413 0-1.637.581-2.975 1.544-4.025-.169-.378-.675-1.903.131-3.97 0 0 1.256-.402 4.125 1.538a14.38 14.38 0 0 1 3.75-.506 14.38 14.38 0 0 1 3.75.506c2.85-1.94 4.106-1.538 4.106-1.538.806 2.067.3 3.592.15 3.97.956 1.05 1.538 2.388 1.538 4.025 0 5.763-3.507 7.032-6.844 7.4.525.45 1.012 1.37 1.012 2.775 0 2.008-.018 3.62-.018 4.108 0 .394.262.862 1.031.712 6.001-1.967 10.295-7.592 10.295-14.21 0-8.285-6.716-15-15-15Z"/>
  </g>
  <defs>
    <clipPath id="a">
      <path fill="#fff" d="M0 0h30v30H0z" transform="translate(.25 .5)"/>
    </clipPath>
  </defs>
</svg>
