<svg xmlns="http://www.w3.org/2000/svg" fill="none" viewBox="0 0 31 31">
  <mask id="a" width="31" height="31" x="0" y="0" maskUnits="userSpaceOnUse" style="mask-type:alpha">
    <path fill="coral" d="M.75.5h30v30h-30z"/>
  </mask>
  <g mask="url(#a)">
    <path fill="#2D3436" d="M15.75 15.5c.688 0 1.276-.245 1.766-.735s.734-1.078.734-1.765a2.41 2.41 0 0 0-.734-1.766 2.41 2.41 0 0 0-1.766-.734c-.688 0-1.276.245-1.765.734A2.409 2.409 0 0 0 13.25 13c0 .688.245 1.276.735 1.765.49.49 1.078.735 1.765.735Zm0 9.188c2.542-2.334 4.427-4.454 5.656-6.36 1.23-1.906 1.844-3.599 1.844-5.078 0-2.27-.724-4.13-2.172-5.579C19.63 6.224 17.854 5.5 15.75 5.5s-3.88.724-5.329 2.171C8.974 9.12 8.25 10.98 8.25 13.25c0 1.48.615 3.172 1.844 5.078 1.229 1.906 3.114 4.026 5.656 6.36Zm0 3.312c-3.354-2.854-5.86-5.505-7.515-7.954C6.578 17.6 5.75 15.333 5.75 13.25c0-3.125 1.005-5.615 3.016-7.469C10.776 3.927 13.104 3 15.75 3s4.974.927 6.984 2.781 3.016 4.344 3.016 7.469c0 2.083-.828 4.349-2.484 6.796-1.656 2.449-4.162 5.1-7.516 7.954Z"/>
  </g>
</svg>
