<svg xmlns="http://www.w3.org/2000/svg" fill="none" viewBox="0 0 30 30">
  <path fill="#fff" d="M19.815 11.226H14.08V0h5.735a5.619 5.619 0 0 1 5.612 5.612 5.62 5.62 0 0 1-5.612 5.614Zm-3.896-1.839h3.896a3.778 3.778 0 0 0 3.774-3.773 3.78 3.78 0 0 0-3.774-3.774h-3.896v7.547Zm0 1.84h-5.734a5.618 5.618 0 0 1-5.613-5.613A5.62 5.62 0 0 1 10.185 0h5.735v11.226h-.001Zm-5.734-9.388a3.778 3.778 0 0 0-3.774 3.773 3.78 3.78 0 0 0 3.774 3.775h3.896V1.84h-3.896Zm5.734 18.773h-5.734A5.619 5.619 0 0 1 4.572 15a5.619 5.619 0 0 1 5.613-5.613h5.735v11.226h-.001Zm-5.734-9.386A3.778 3.778 0 0 0 6.411 15a3.78 3.78 0 0 0 3.774 3.774h3.896v-7.548h-3.896ZM10.215 30c-3.111 0-5.644-2.517-5.644-5.613a5.619 5.619 0 0 1 5.613-5.612h5.735v5.551c0 3.129-2.559 5.674-5.704 5.674Zm-.03-9.387a3.778 3.778 0 0 0-3.774 3.773c0 2.082 1.706 3.774 3.805 3.774 2.132 0 3.867-1.72 3.867-3.835v-3.712h-3.898Zm9.63 0h-.123A5.619 5.619 0 0 1 14.08 15a5.619 5.619 0 0 1 5.612-5.613h.123A5.619 5.619 0 0 1 25.427 15a5.619 5.619 0 0 1-5.612 5.613Zm-.121-9.387A3.778 3.778 0 0 0 15.92 15a3.78 3.78 0 0 0 3.774 3.774h.122A3.778 3.778 0 0 0 23.59 15a3.78 3.78 0 0 0-3.774-3.774h-.122Z"/>
</svg>
