<svg width="35" height="35" viewBox="0 0 35 35" fill="none" xmlns="http://www.w3.org/2000/svg">
<rect width="35" height="35" fill="#F24E1E"/>
<path d="M20.7104 14.9842H16.8871V7.5H20.7104C22.7737 7.5 24.4521 9.17833 24.4521 11.2417C24.4521 13.305 22.7737 14.9842 20.7104 14.9842ZM18.1129 13.7583H20.7104C22.0979 13.7583 23.2262 12.6292 23.2262 11.2425C23.2262 9.85583 22.0971 8.72667 20.7104 8.72667H18.1129V13.7583ZM18.1129 14.9842H14.2904C12.2271 14.9842 10.5487 13.3058 10.5487 11.2425C10.5487 9.17917 12.2271 7.5 14.2904 7.5H18.1137V14.9842H18.1129ZM14.2904 8.72583C12.9029 8.72583 11.7746 9.855 11.7746 11.2417C11.7746 12.6283 12.9029 13.7583 14.2904 13.7583H16.8879V8.72583H14.2904ZM18.1129 21.2417H14.2904C12.2271 21.2417 10.5487 19.5633 10.5487 17.5C10.5487 15.4367 12.2271 13.7583 14.2904 13.7583H18.1137V21.2417H18.1129ZM14.2904 14.9842C12.9029 14.9842 11.7746 16.1133 11.7746 17.5C11.7746 18.8867 12.9037 20.0158 14.2904 20.0158H16.8879V14.9842H14.2904ZM14.3104 27.5C12.2362 27.5 10.5479 25.8217 10.5479 23.7583C10.5479 21.695 12.2262 20.0167 14.2896 20.0167H18.1129V23.7175C18.1129 25.8033 16.4071 27.5 14.3104 27.5ZM14.2904 21.2417C13.6234 21.2425 12.984 21.5079 12.5124 21.9795C12.0408 22.4511 11.7755 23.0905 11.7746 23.7575C11.7746 25.145 12.9121 26.2733 14.3112 26.2733C15.7321 26.2733 16.8887 25.1267 16.8887 23.7167V21.2417H14.2904ZM20.7104 21.2417H20.6287C18.5654 21.2417 16.8871 19.5633 16.8871 17.5C16.8871 15.4367 18.5654 13.7583 20.6287 13.7583H20.7104C22.7737 13.7583 24.4521 15.4367 24.4521 17.5C24.4521 19.5633 22.7737 21.2417 20.7104 21.2417ZM20.6296 14.9842C19.2421 14.9842 18.1137 16.1133 18.1137 17.5C18.1137 18.8867 19.2429 20.0158 20.6296 20.0158H20.7112C22.0987 20.0158 23.2271 18.8867 23.2271 17.5C23.2271 16.1133 22.0979 14.9842 20.7112 14.9842H20.6296Z" fill="white"/>
</svg>
