<svg width="35" height="35" viewBox="0 0 35 35" fill="none" xmlns="http://www.w3.org/2000/svg">
<rect width="35" height="35" fill="#F7DF1E"/>
<path d="M7.5 7.5H27.5V27.5H7.5V7.5ZM25.8617 22.73C25.7158 21.8175 25.1217 21.0508 23.3592 20.3358C22.7458 20.0483 22.0642 19.8483 21.8617 19.3858C21.7858 19.1108 21.7742 18.9608 21.8233 18.7983C21.9483 18.26 22.5858 18.0983 23.0858 18.2483C23.4108 18.3483 23.7108 18.5983 23.8992 18.9983C24.7608 18.435 24.7608 18.435 25.3617 18.0608C25.1367 17.7108 25.025 17.56 24.8733 17.4108C24.3483 16.8233 23.6492 16.5233 22.5117 16.5492L21.9242 16.6233C21.3608 16.7608 20.8242 17.0608 20.4992 17.4608C19.5492 18.5367 19.8233 20.4117 20.9733 21.1867C22.1108 22.0367 23.7742 22.2233 23.9867 23.0242C24.1867 23.9992 23.2617 24.3117 22.3483 24.1992C21.6725 24.0492 21.2983 23.7108 20.8858 23.0858L19.3608 23.9617C19.5358 24.3617 19.7358 24.5358 20.0358 24.8858C21.4858 26.3492 25.1108 26.2742 25.7617 24.0492C25.7858 23.9742 25.9617 23.4617 25.8233 22.6742L25.8617 22.73ZM18.3758 16.6925H16.5025C16.5025 18.3075 16.495 19.9125 16.495 21.53C16.495 22.5567 16.5475 23.4992 16.38 23.7892C16.105 24.3633 15.3967 24.29 15.075 24.1892C14.745 24.0258 14.5775 23.8008 14.3833 23.4767C14.3308 23.3892 14.2917 23.3133 14.2775 23.3133L12.7567 24.2508C13.0108 24.7758 13.3817 25.2275 13.86 25.515C14.5725 25.94 15.53 26.0775 16.5325 25.8525C17.185 25.6642 17.7475 25.2767 18.0417 24.6767C18.4667 23.9017 18.3767 22.9517 18.3725 21.8883C18.3825 20.1767 18.3725 18.4642 18.3725 16.7392L18.3758 16.6925Z" fill="white"/>
</svg>
