<svg width="35" height="35" viewBox="0 0 35 35" fill="none" xmlns="http://www.w3.org/2000/svg">
<rect width="35" height="35" fill="#3178C6"/>
<path d="M8.4375 7.5C7.91833 7.5 7.5 7.91833 7.5 8.4375V26.5625C7.5 27.0817 7.91833 27.5 8.4375 27.5H26.5625C27.0817 27.5 27.5 27.0817 27.5 26.5625V8.4375C27.5 7.91833 27.0817 7.5 26.5625 7.5H8.4375ZM22.9067 15.625C23.4167 15.625 23.8683 15.6558 24.2625 15.7175C24.6343 15.7732 24.9991 15.8682 25.3508 16.0008V18.0492C25.182 17.9324 25.0026 17.8317 24.815 17.7483C24.6215 17.6613 24.4218 17.5889 24.2175 17.5317C23.8305 17.4238 23.4309 17.3678 23.0292 17.365C22.7792 17.365 22.5517 17.3883 22.3467 17.4367C22.164 17.4757 21.9887 17.5438 21.8275 17.6383C21.6858 17.725 21.5775 17.8292 21.5 17.95C21.4221 18.0718 21.3815 18.2137 21.3833 18.3583C21.3833 18.5217 21.4275 18.6692 21.5133 18.7992C21.6 18.9292 21.7233 19.0525 21.8825 19.1692C22.0417 19.2858 22.235 19.3992 22.4625 19.5108C22.69 19.6233 22.9475 19.7392 23.2342 19.8575C23.6258 20.0217 23.9775 20.1967 24.2892 20.3808C24.6008 20.5658 24.8683 20.775 25.0917 21.0083C25.315 21.2408 25.485 21.5067 25.6033 21.8058C25.7217 22.105 25.7817 22.4525 25.7817 22.85C25.7817 23.3975 25.6775 23.8583 25.4708 24.23C25.2689 24.5966 24.9791 24.9072 24.6275 25.1342C24.2485 25.3745 23.8284 25.5429 23.3883 25.6308C22.9167 25.7308 22.4192 25.7808 21.8967 25.7808C21.3824 25.7831 20.8691 25.7373 20.3633 25.6442C19.9258 25.5685 19.5014 25.4301 19.1033 25.2333V23.0417C19.8565 23.6826 20.8119 24.0368 21.8008 24.0417C22.0783 24.0417 22.3208 24.0167 22.5275 23.9667C22.735 23.9167 22.9075 23.8467 23.0467 23.7583C23.185 23.6683 23.2883 23.5633 23.3575 23.4417C23.4339 23.3 23.4687 23.1396 23.4578 22.979C23.4469 22.8184 23.3907 22.6642 23.2958 22.5342C23.172 22.3703 23.0206 22.2293 22.8483 22.1175C22.6347 21.9759 22.4098 21.8521 22.1758 21.7475C21.8985 21.6209 21.6188 21.4997 21.3367 21.3842C20.5717 21.065 20.0017 20.6742 19.6258 20.2133C19.2508 19.7525 19.0625 19.195 19.0625 18.5425C19.0625 18.0308 19.165 17.5917 19.37 17.2242C19.575 16.8567 19.8533 16.5542 20.2067 16.3167C20.5804 16.0701 20.9953 15.8926 21.4317 15.7925C21.915 15.6785 22.4101 15.6223 22.9067 15.625ZM10.3125 15.7817H18.2817V17.5867H15.4217V25.625H13.1575V17.5867H10.3125V15.7817Z" fill="white"/>
</svg>
