<svg xmlns="http://www.w3.org/2000/svg" fill="none" viewBox="0 0 24 25">
  <mask id="a" width="24" height="25" x="0" y="0" maskUnits="userSpaceOnUse" style="mask-type:alpha">
    <path fill="#D9D9D9" d="M0 .5h24v24H0z"/>
  </mask>
  <g mask="url(#a)">
    <path fill="currentColor" d="M5 22.5a2.893 2.893 0 0 1-2.125-.875A2.893 2.893 0 0 1 2 19.5v-14c0-.833.292-1.542.875-2.125A2.893 2.893 0 0 1 5 2.5h14c.833 0 1.542.292 2.125.875S22 4.667 22 5.5v14c0 .833-.292 1.542-.875 2.125A2.893 2.893 0 0 1 19 22.5H5Zm0-2h14c.283 0 .52-.096.712-.288A.965.965 0 0 0 20 19.5v-14a.968.968 0 0 0-.288-.713A.967.967 0 0 0 19 4.5H5a.97.97 0 0 0-.713.287A.97.97 0 0 0 4 5.5v14c0 .283.096.52.287.712.192.192.43.288.713.288Zm1-2 4-4 1.8 1.775L14 13.5l4 5H6Zm2-8c-.55 0-1.02-.196-1.412-.588A1.923 1.923 0 0 1 6 8.5c0-.55.196-1.02.588-1.412A1.923 1.923 0 0 1 8 6.5c.55 0 1.021.196 1.413.588.391.391.587.862.587 1.412 0 .55-.196 1.02-.587 1.412A1.927 1.927 0 0 1 8 10.5Z"/>
  </g>
</svg>
