
<svg xmlns="http://www.w3.org/2000/svg" width="24" height="25" fill="currentColor"><mask id="a" width="24" height="25" x="0" y="0" maskUnits="userSpaceOnUse" style="mask-type:alpha"><path fill="#D9D9D9" d="M0 .5h24v24H0z"/></mask><g mask="url(#a)"><path fill="currentColor" d="M12 12.5c-1.1 0-2.042-.392-2.825-1.175C8.392 10.542 8 9.6 8 8.5s.392-2.042 1.175-2.825C9.958 4.892 10.9 4.5 12 4.5s2.042.392 2.825 1.175C15.608 6.458 16 7.4 16 8.5s-.392 2.042-1.175 2.825C14.042 12.108 13.1 12.5 12 12.5Zm-8 8v-2.8c0-.567.146-1.088.438-1.563A2.914 2.914 0 0 1 5.6 15.05a14.866 14.866 0 0 1 3.15-1.163A13.776 13.776 0 0 1 12 13.5c1.1 0 2.183.129 3.25.387 1.067.259 2.117.646 3.15 1.163.483.25.87.612 1.162 1.087.292.475.438.996.438 1.563v2.8H4Z"/></g></svg>