<svg width="16" height="16" viewBox="0 0 16 16" fill="none" xmlns="http://www.w3.org/2000/svg">
  <g>
    <path d="M8.00004 11.3333C8.18893 11.3333 8.34737 11.2693 8.47537 11.1413C8.60293 11.0137 8.66671 10.8555 8.66671 10.6666C8.66671 10.4777 8.60293 10.3193 8.47537 10.1913C8.34737 10.0637 8.18893 9.99992 8.00004 9.99992C7.81115 9.99992 7.65293 10.0637 7.52537 10.1913C7.39737 10.3193 7.33337 10.4777 7.33337 10.6666C7.33337 10.8555 7.39737 11.0137 7.52537 11.1413C7.65293 11.2693 7.81115 11.3333 8.00004 11.3333ZM7.33337 8.66658H8.66671V4.66658H7.33337V8.66658ZM8.00004 14.6666C7.07782 14.6666 6.21115 14.4915 5.40004 14.1413C4.58893 13.7915 3.88337 13.3166 3.28337 12.7166C2.68337 12.1166 2.20849 11.411 1.85871 10.5999C1.50849 9.78881 1.33337 8.92214 1.33337 7.99992C1.33337 7.0777 1.50849 6.21103 1.85871 5.39992C2.20849 4.58881 2.68337 3.88325 3.28337 3.28325C3.88337 2.68325 4.58893 2.20814 5.40004 1.85792C6.21115 1.50814 7.07782 1.33325 8.00004 1.33325C8.92226 1.33325 9.78893 1.50814 10.6 1.85792C11.4112 2.20814 12.1167 2.68325 12.7167 3.28325C13.3167 3.88325 13.7916 4.58881 14.1414 5.39992C14.4916 6.21103 14.6667 7.0777 14.6667 7.99992C14.6667 8.92214 14.4916 9.78881 14.1414 10.5999C13.7916 11.411 13.3167 12.1166 12.7167 12.7166C12.1167 13.3166 11.4112 13.7915 10.6 14.1413C9.78893 14.4915 8.92226 14.6666 8.00004 14.6666ZM8.00004 13.3333C9.48893 13.3333 10.75 12.8166 11.7834 11.7833C12.8167 10.7499 13.3334 9.48881 13.3334 7.99992C13.3334 6.51103 12.8167 5.24992 11.7834 4.21658C10.75 3.18325 9.48893 2.66659 8.00004 2.66659C6.51115 2.66659 5.25004 3.18325 4.21671 4.21658C3.18337 5.24992 2.66671 6.51103 2.66671 7.99992C2.66671 9.48881 3.18337 10.7499 4.21671 11.7833C5.25004 12.8166 6.51115 13.3333 8.00004 13.3333Z" fill="#AC0000"/>
  </g>
</svg>
