<svg width="31" height="31" viewBox="0 0 31 31" fill="none" xmlns="http://www.w3.org/2000/svg">
<mask id="mask0_301_609" style="mask-type:alpha" maskUnits="userSpaceOnUse" x="0" y="0" width="31" height="31">
<rect x="0.75" y="0.5" width="30" height="30" fill="#FF7F50"/>
</mask>
<g mask="url(#mask0_301_609)">
<path d="M15.75 15.5C16.4375 15.5 17.0262 15.255 17.5163 14.765C18.0054 14.2758 18.25 13.6875 18.25 13C18.25 12.3125 18.0054 11.7238 17.5163 11.2337C17.0262 10.7446 16.4375 10.5 15.75 10.5C15.0625 10.5 14.4742 10.7446 13.985 11.2337C13.495 11.7238 13.25 12.3125 13.25 13C13.25 13.6875 13.495 14.2758 13.985 14.765C14.4742 15.255 15.0625 15.5 15.75 15.5ZM15.75 24.6875C18.2917 22.3542 20.1771 20.2342 21.4062 18.3275C22.6354 16.4217 23.25 14.7292 23.25 13.25C23.25 10.9792 22.5258 9.11958 21.0775 7.67125C19.63 6.22375 17.8542 5.5 15.75 5.5C13.6458 5.5 11.8696 6.22375 10.4212 7.67125C8.97375 9.11958 8.25 10.9792 8.25 13.25C8.25 14.7292 8.86458 16.4217 10.0938 18.3275C11.3229 20.2342 13.2083 22.3542 15.75 24.6875ZM15.75 28C12.3958 25.1458 9.89083 22.4946 8.235 20.0462C6.57833 17.5988 5.75 15.3333 5.75 13.25C5.75 10.125 6.75542 7.63542 8.76625 5.78125C10.7763 3.92708 13.1042 3 15.75 3C18.3958 3 20.7238 3.92708 22.7337 5.78125C24.7446 7.63542 25.75 10.125 25.75 13.25C25.75 15.3333 24.9221 17.5988 23.2663 20.0462C21.6096 22.4946 19.1042 25.1458 15.75 28Z" fill="#2D3436"/>
</g>
</svg>
