<svg width="31" height="31" viewBox="0 0 31 31" fill="none" xmlns="http://www.w3.org/2000/svg">
<mask id="mask0_301_595" style="mask-type:alpha" maskUnits="userSpaceOnUse" x="0" y="0" width="31" height="31">
<rect x="0.25" y="0.5" width="30" height="30" fill="#FF7F50"/>
</mask>
<g mask="url(#mask0_301_595)">
<path d="M5.24995 25.5C4.56245 25.5 3.97412 25.2554 3.48495 24.7663C2.99495 24.2763 2.74995 23.6875 2.74995 23V8C2.74995 7.3125 2.99495 6.72417 3.48495 6.235C3.97412 5.745 4.56245 5.5 5.24995 5.5H25.25C25.9375 5.5 26.5262 5.745 27.0162 6.235C27.5054 6.72417 27.75 7.3125 27.75 8V23C27.75 23.6875 27.5054 24.2763 27.0162 24.7663C26.5262 25.2554 25.9375 25.5 25.25 25.5H5.24995ZM15.25 16.75L5.24995 10.5V23H25.25V10.5L15.25 16.75ZM15.25 14.25L25.25 8H5.24995L15.25 14.25ZM5.24995 10.5V8V23V10.5Z" fill="#2D3436"/>
</g>
</svg>
