<svg width="31" height="31" viewBox="0 0 31 31" fill="none" xmlns="http://www.w3.org/2000/svg">
<mask id="mask0_301_600" style="mask-type:alpha" maskUnits="userSpaceOnUse" x="0" y="0" width="31" height="31">
<rect x="0.75" y="0.5" width="30" height="30" fill="#FF7F50"/>
</mask>
<g mask="url(#mask0_301_600)">
<path d="M5.8125 26.75C5.4375 26.75 5.125 26.625 4.875 26.375C4.625 26.125 4.5 25.8125 4.5 25.4375V20.375C4.5 20.0833 4.59375 19.8279 4.78125 19.6087C4.96875 19.3904 5.20833 19.25 5.5 19.1875L9.8125 18.3125C10.1042 18.2708 10.4012 18.2967 10.7037 18.39C11.0054 18.4842 11.25 18.625 11.4375 18.8125L14.375 21.75C15.9583 20.7917 17.4117 19.6562 18.735 18.3438C20.0575 17.0312 21.1562 15.625 22.0312 14.125L19 11.0625C18.8125 10.875 18.6925 10.6612 18.64 10.4212C18.5883 10.1821 18.5833 9.91667 18.625 9.625L19.4375 5.25C19.4792 4.95833 19.6146 4.71875 19.8438 4.53125C20.0729 4.34375 20.3333 4.25 20.625 4.25H25.6875C26.0625 4.25 26.375 4.375 26.625 4.625C26.875 4.875 27 5.1875 27 5.5625C27 8.25 26.4008 10.8696 25.2025 13.4212C24.005 15.9738 22.4217 18.2342 20.4525 20.2025C18.4842 22.1717 16.2242 23.755 13.6725 24.9525C11.12 26.1508 8.5 26.75 5.8125 26.75ZM23.2188 11.75C23.5729 10.9375 23.8438 10.1146 24.0312 9.28125C24.2188 8.44792 24.3646 7.60417 24.4688 6.75H21.6875L21.1562 9.6875L23.2188 11.75ZM12.0312 22.9375L9.9375 20.8438L7 21.4375V24.1875C7.85417 24.125 8.70333 23.9896 9.5475 23.7812C10.3908 23.5729 11.2187 23.2917 12.0312 22.9375Z" fill="#2D3436"/>
</g>
</svg>
