<svg width="35" height="35" viewBox="0 0 35 35" fill="none" xmlns="http://www.w3.org/2000/svg">
<rect width="35" height="35" fill="#61DAFB"/>
<path d="M19.3583 17.5021C19.3583 17.9961 19.1621 18.4699 18.8129 18.8194C18.4636 19.1688 17.9899 19.3652 17.4958 19.3654C17.0016 19.3654 16.5277 19.1691 16.1783 18.8197C15.8288 18.4702 15.6325 17.9963 15.6325 17.5021C15.6325 17.008 15.8287 16.5342 16.178 16.1848C16.5272 15.8354 17.001 15.639 17.495 15.6387C17.9892 15.6387 18.4631 15.8351 18.8126 16.1845C19.162 16.5339 19.3583 17.0079 19.3583 17.5021ZM21.565 8.59375C20.4433 8.59375 18.9758 9.39375 17.4917 10.7788C16.0083 9.40125 14.54 8.61042 13.4192 8.61042C13.0775 8.61042 12.7667 8.68792 12.4975 8.84208C11.3517 9.50292 11.095 11.5621 11.6867 14.1462C9.15 14.9296 7.5 16.1821 7.5 17.5021C7.5 18.8271 9.15833 20.0829 11.7025 20.8604C11.1158 23.4546 11.3775 25.5171 12.5258 26.1771C12.7925 26.3329 13.1008 26.4062 13.4442 26.4062C14.565 26.4062 16.0333 25.6063 17.5175 24.2196C19.0008 25.5979 20.4692 26.3888 21.59 26.3888C21.9317 26.3888 22.2425 26.3137 22.5117 26.1596C23.6567 25.4996 23.9142 23.4404 23.3225 20.8554C25.85 20.0787 27.5 18.8237 27.5 17.5021C27.5 16.1771 25.8417 14.9212 23.2975 14.1421C23.8842 11.5504 23.6225 9.48625 22.4742 8.82542C22.2092 8.67208 21.9017 8.59458 21.565 8.59375ZM21.5608 9.50208V9.50708C21.7483 9.50708 21.8992 9.54375 22.0258 9.61292C22.5808 9.93125 22.8217 11.1421 22.6342 12.6996C22.5892 13.0829 22.5158 13.4871 22.4258 13.8996C21.6258 13.7029 20.7542 13.5521 19.8367 13.4546C19.2867 12.7004 18.7158 12.0154 18.1408 11.4154C19.4675 10.1821 20.7133 9.50542 21.5617 9.50292L21.5608 9.50208ZM13.4192 9.51875C14.2625 9.51875 15.5142 10.1921 16.8442 11.4187C16.2725 12.0187 15.7025 12.6996 15.1608 13.4537C14.2383 13.5512 13.3658 13.7021 12.5667 13.9021C12.4733 13.4937 12.4042 13.0987 12.355 12.7187C12.1633 11.1621 12.4 9.95208 12.95 9.62958C13.1083 9.55458 13.2833 9.52292 13.4192 9.51875ZM17.4875 12.0604C17.8667 12.4504 18.2458 12.8871 18.6208 13.3637C18.2542 13.3471 17.8792 13.3354 17.5 13.3354C17.1167 13.3354 16.7375 13.3438 16.3667 13.3637C16.7333 12.8871 17.1125 12.4512 17.4875 12.0604ZM17.5 14.2488C18.1167 14.2488 18.7308 14.2771 19.335 14.3262C19.6733 14.8112 20.0033 15.3288 20.3208 15.8763C20.6308 16.4096 20.9125 16.9512 21.1692 17.4979C20.9125 18.0437 20.6308 18.5896 20.325 19.1229C20.0083 19.6729 19.6808 20.1962 19.3417 20.6812C18.735 20.7337 18.12 20.7629 17.5 20.7629C16.8833 20.7629 16.2692 20.7338 15.665 20.6854C15.3267 20.2004 14.9967 19.6821 14.6792 19.1354C14.3692 18.6021 14.0875 18.0604 13.8308 17.5137C14.0833 16.9662 14.3692 16.4196 14.675 15.8854C14.9917 15.3354 15.3192 14.8137 15.6583 14.3287C16.265 14.2754 16.88 14.2471 17.5 14.2471V14.2488ZM14.4708 14.4604C14.2708 14.7746 14.0708 15.0962 13.8842 15.4271C13.6967 15.7521 13.5217 16.0787 13.355 16.4054C13.1342 15.8587 12.9467 15.3137 12.7917 14.7829C13.325 14.6579 13.8875 14.5462 14.4708 14.4604ZM20.5208 14.4604C21.1 14.5462 21.6583 14.6521 22.1925 14.7829C22.0425 15.3096 21.855 15.8512 21.6425 16.3937C21.4758 16.0687 21.3008 15.7412 21.1092 15.4154C20.9217 15.0887 20.7217 14.7704 20.5217 14.4604H20.5208ZM23.0733 15.0229C23.4767 15.1479 23.86 15.2871 24.2192 15.4379C25.6625 16.0546 26.5958 16.8612 26.5958 17.5013C26.5917 18.1412 25.6583 18.9512 24.215 19.5637C23.865 19.7137 23.4817 19.8487 23.0858 19.9746C22.8525 19.1762 22.5475 18.3446 22.1692 17.4913C22.5442 16.6438 22.8442 15.8162 23.0733 15.0213V15.0229ZM11.9108 15.0262C12.1425 15.8262 12.4483 16.6571 12.8275 17.5096C12.4525 18.3571 12.1508 19.1846 11.9225 19.9796C11.5192 19.8546 11.1358 19.7146 10.7808 19.5629C9.3375 18.9487 8.40417 18.1412 8.40417 17.5013C8.40417 16.8612 9.3375 16.0496 10.7808 15.4379C11.1308 15.2879 11.5142 15.1529 11.9108 15.0262ZM21.6425 18.5929C21.8633 19.1404 22.0508 19.6862 22.2058 20.2162C21.6725 20.3471 21.1092 20.4579 20.5258 20.5412C20.7258 20.2287 20.9258 19.9062 21.1133 19.5763C21.3008 19.2512 21.475 18.9196 21.6425 18.5929ZM13.355 18.6096C13.5217 18.9362 13.6967 19.2621 13.8883 19.5887C14.08 19.9137 14.2758 20.2321 14.4758 20.5412C13.8967 20.4562 13.3383 20.3496 12.8042 20.2196C12.9542 19.6946 13.1425 19.1512 13.3542 18.6087L13.355 18.6096ZM22.4333 21.0987C22.5267 21.5096 22.6 21.9054 22.645 22.2846C22.8367 23.8413 22.6 25.0513 22.05 25.3746C21.9275 25.4496 21.7683 25.4813 21.5808 25.4813C20.7375 25.4813 19.4858 24.8088 18.1558 23.5813C18.7275 22.9812 19.2975 22.3012 19.8392 21.5479C20.7617 21.4496 21.6342 21.2987 22.4333 21.0987ZM12.575 21.1071C13.375 21.3021 14.2467 21.4529 15.1642 21.5504C15.7142 22.3046 16.285 22.9896 16.86 23.5888C15.5308 24.8246 14.2833 25.5013 13.435 25.5013C13.2517 25.4971 13.0967 25.4596 12.9742 25.3913C12.4192 25.0746 12.1783 23.8629 12.3658 22.3054C12.4108 21.9221 12.485 21.5187 12.575 21.1071ZM16.375 21.6404C16.7417 21.6571 17.1167 21.6687 17.4958 21.6687C17.8792 21.6687 18.2583 21.6604 18.6292 21.6404C18.2625 22.1171 17.8833 22.5529 17.5083 22.9446C17.1292 22.5529 16.75 22.1171 16.375 21.6404Z" fill="white"/>
</svg>
