<svg width="24" height="24" viewBox="0 0 24 24" fill="none" xmlns="http://www.w3.org/2000/svg">
<mask id="mask0_301_731" style="mask-type:alpha" maskUnits="userSpaceOnUse" x="0" y="0" width="24" height="24">
<rect width="24" height="24" fill="#E74C3C"/>
</mask>
<g mask="url(#mask0_301_731)">
<path d="M12 17C12.2833 17 12.521 16.904 12.713 16.712C12.9043 16.5207 13 16.2833 13 16C13 15.7167 12.9043 15.479 12.713 15.287C12.521 15.0957 12.2833 15 12 15C11.7167 15 11.4793 15.0957 11.288 15.287C11.096 15.479 11 15.7167 11 16C11 16.2833 11.096 16.5207 11.288 16.712C11.4793 16.904 11.7167 17 12 17ZM11 13H13V7H11V13ZM8.25 21L3 15.75V8.25L8.25 3H15.75L21 8.25V15.75L15.75 21H8.25ZM9.1 19H14.9L19 14.9V9.1L14.9 5H9.1L5 9.1V14.9L9.1 19Z" fill="#E74C3C"/>
</g>
</svg>
