<svg width="35" height="35" viewBox="0 0 35 35" fill="none" xmlns="http://www.w3.org/2000/svg">
<rect width="35" height="35" fill="#FF3E00"/>
<path d="M16.1286 25.1045C15.3955 25.2949 14.6217 25.2558 13.9116 24.9925C13.2015 24.7292 12.5893 24.2543 12.1577 23.632C11.8927 23.2611 11.7043 22.8411 11.6037 22.3965C11.5031 21.9519 11.4923 21.4916 11.5719 21.0428C11.599 20.8954 11.6364 20.75 11.6836 20.6078L11.7711 20.3403L12.0102 20.5153C12.5613 20.9201 13.1773 21.2278 13.8319 21.4253L14.0052 21.4778L13.9886 21.6511C13.9678 21.8967 14.0345 22.1417 14.1769 22.3428C14.3068 22.5304 14.4911 22.6735 14.705 22.753C14.9188 22.8324 15.1519 22.8443 15.3727 22.787C15.4738 22.7601 15.5702 22.718 15.6586 22.662L20.3169 19.6936C20.4307 19.6218 20.5282 19.527 20.6034 19.4154C20.6786 19.3038 20.7297 19.1777 20.7536 19.0453C20.7775 18.91 20.7744 18.7713 20.7442 18.6372C20.714 18.5031 20.6574 18.3764 20.5777 18.2645C20.4478 18.077 20.2634 17.9339 20.0496 17.8545C19.8358 17.7751 19.6027 17.7631 19.3819 17.8203C19.2808 17.8471 19.1844 17.8893 19.0961 17.9453L17.3186 19.0786C17.0263 19.2646 16.7074 19.4049 16.3727 19.4945C15.6398 19.685 14.866 19.6461 14.156 19.3829C13.4459 19.1197 12.8336 18.645 12.4019 18.0228C12.1368 17.6518 11.9485 17.2316 11.8481 16.7868C11.7476 16.3421 11.737 15.8817 11.8169 15.4328C11.8959 14.9929 12.0658 14.5743 12.3158 14.2038C12.5657 13.8333 12.8902 13.5191 13.2686 13.2811L17.9261 10.312C18.2183 10.1259 18.5372 9.98568 18.8719 9.89616C19.6049 9.7057 20.3787 9.74477 21.0888 10.0081C21.7989 10.2714 22.4111 10.7463 22.8427 11.3687C23.1078 11.7395 23.2961 12.1595 23.3967 12.6042C23.4973 13.0488 23.5082 13.509 23.4285 13.9578C23.4013 14.1052 23.364 14.2505 23.3169 14.3928L23.2294 14.6603L22.991 14.4853C22.4399 14.0801 21.8235 13.772 21.1686 13.5745L20.9952 13.522L21.0119 13.3495C21.0328 13.1037 20.966 12.8584 20.8236 12.657C20.6936 12.4696 20.5092 12.3266 20.2953 12.2473C20.0815 12.168 19.8485 12.1563 19.6277 12.2137C19.5266 12.2405 19.4302 12.2827 19.3419 12.3387L14.6836 15.307C14.5697 15.3788 14.4721 15.4735 14.3969 15.5851C14.3217 15.6968 14.2706 15.8228 14.2469 15.9553C14.2228 16.0906 14.226 16.2294 14.2561 16.3634C14.2863 16.4975 14.343 16.6242 14.4227 16.7361C14.5527 16.9236 14.737 17.0667 14.9509 17.1461C15.1647 17.2256 15.3977 17.2375 15.6186 17.1803C15.72 17.1532 15.8167 17.1108 15.9052 17.0545L17.6819 15.9211C17.9741 15.7353 18.2931 15.5953 18.6277 15.5061C19.3607 15.3156 20.1344 15.3545 20.8445 15.6177C21.5546 15.8809 22.1668 16.3556 22.5985 16.9778C22.8636 17.3488 23.0519 17.769 23.1524 18.2138C23.2528 18.6585 23.2634 19.1189 23.1835 19.5678C23.1046 20.0078 22.9347 20.4265 22.6847 20.7971C22.4348 21.1678 22.1102 21.4822 21.7319 21.7203L17.0744 24.6886C16.7822 24.8747 16.4632 25.0149 16.1286 25.1045ZM24.7602 10.1462C22.9035 7.48783 19.2352 6.70033 16.5836 8.39033L11.9252 11.3587C11.2962 11.7546 10.7566 12.2774 10.341 12.8937C9.9255 13.51 9.6431 14.2062 9.51191 14.9378C9.28964 16.1705 9.48495 17.442 10.0669 18.5511C9.66803 19.1558 9.39588 19.835 9.26691 20.5478C9.13437 21.2942 9.15219 22.0595 9.31933 22.7989C9.48647 23.5383 9.79956 24.2368 10.2402 24.8536C12.0977 27.5119 15.7652 28.2994 18.4169 26.6103L23.0752 23.642C23.7044 23.2461 24.244 22.7233 24.6595 22.107C25.0751 21.4907 25.3574 20.7945 25.4885 20.0628C25.7109 18.8302 25.5159 17.5587 24.9344 16.4495C25.3327 15.8447 25.6043 15.1655 25.7327 14.4528C25.8656 13.7064 25.848 12.9409 25.681 12.2014C25.514 11.4618 25.2009 10.7631 24.7602 10.1462Z" fill="white"/>
</svg>
