<svg width="16" height="16" viewBox="0 0 16 16" fill="none" xmlns="http://www.w3.org/2000/svg">
<mask id="mask0_528_159" style="mask-type:alpha" maskUnits="userSpaceOnUse" x="0" y="0" width="16" height="16">
<rect width="16" height="16" fill="#636E72"/>
</mask>
<g mask="url(#mask0_528_159)">
<path d="M2.66659 13.3333C2.29992 13.3333 1.98614 13.2028 1.72525 12.942C1.46392 12.6806 1.33325 12.3666 1.33325 12V3.99996C1.33325 3.63329 1.46392 3.31951 1.72525 3.05863C1.98614 2.79729 2.29992 2.66663 2.66659 2.66663H13.3333C13.6999 2.66663 14.0139 2.79729 14.2753 3.05863C14.5361 3.31951 14.6666 3.63329 14.6666 3.99996V12C14.6666 12.3666 14.5361 12.6806 14.2753 12.942C14.0139 13.2028 13.6999 13.3333 13.3333 13.3333H2.66659ZM2.66659 12H13.3333V5.33329H2.66659V12ZM4.99992 11.3333L4.06659 10.4L5.78325 8.66663L4.04992 6.93329L4.99992 5.99996L7.66658 8.66663L4.99992 11.3333ZM7.99992 11.3333V9.99996H11.9999V11.3333H7.99992Z" fill="#636E72"/>
</g>
</svg>
