<svg xmlns="http://www.w3.org/2000/svg" fill="none" viewBox="0 0 26 26">
  <mask id="a" width="26" height="26" x="0" y="0" maskUnits="userSpaceOnUse" style="mask-type:alpha">
    <path fill="#2D3436" d="M0 0h26v26H0z"/>
  </mask>
  <g mask="url(#a)">
    <path fill="#2D3436" d="M15.167 11.917h7.583V6.5h-7.583v5.417Zm3.791-1.354L16.25 8.666V7.583l2.708 1.896 2.709-1.896v1.084l-2.709 1.896ZM2.167 22.75a2.086 2.086 0 0 1-1.53-.636A2.087 2.087 0 0 1 0 20.584V5.416C0 4.82.212 4.31.637 3.886a2.085 2.085 0 0 1 1.53-.636h21.666a2.09 2.09 0 0 1 1.531.636c.424.425.636.935.636 1.53v15.167a2.09 2.09 0 0 1-.636 1.531 2.09 2.09 0 0 1-1.53.636H2.166Zm15.058-2.167h6.608V5.417H2.167v15.166h.108a8.253 8.253 0 0 1 3.142-3.182A8.557 8.557 0 0 1 9.75 16.25c1.553 0 2.997.384 4.333 1.15a8.253 8.253 0 0 1 3.142 3.183ZM9.75 15.167c.903 0 1.67-.316 2.302-.948.632-.632.948-1.4.948-2.302 0-.903-.316-1.67-.948-2.302-.632-.632-1.4-.948-2.302-.948-.903 0-1.67.316-2.302.948-.632.631-.948 1.399-.948 2.302 0 .902.316 1.67.948 2.302.632.632 1.4.948 2.302.948Zm-4.82 5.416h9.64a6.466 6.466 0 0 0-2.179-1.598 6.348 6.348 0 0 0-2.641-.568c-.92 0-1.797.19-2.627.568-.83.38-1.562.912-2.194 1.598ZM9.75 13c-.307 0-.564-.104-.771-.312a1.046 1.046 0 0 1-.312-.771c0-.307.104-.565.312-.773.207-.207.464-.31.771-.31s.564.103.772.31c.208.208.311.466.311.773s-.103.564-.31.771A1.05 1.05 0 0 1 9.75 13Z"/>
  </g>
</svg>
