<svg xmlns="http://www.w3.org/2000/svg" fill="none" viewBox="0 0 16 17">
  <mask id="a" width="16" height="17" x="0" y="0" maskUnits="userSpaceOnUse" style="mask-type:alpha">
    <path fill="#636E72" d="M0 .5h16v16H0z"/>
  </mask>
  <g mask="url(#a)">
    <path fill="#636E72" d="M3.333 15.167c-.366 0-.68-.13-.942-.392A1.286 1.286 0 0 1 2 13.833V4.5c0-.367.13-.68.391-.941.262-.262.576-.392.942-.392H4V1.833h1.333v1.334h5.334V1.833H12v1.334h.667c.366 0 .68.13.942.392.26.26.391.574.391.941v9.333c0 .367-.13.681-.391.942-.262.261-.576.392-.942.392H3.333Zm0-1.334h9.334V7.167H3.333v6.666Zm0-8h9.334V4.5H3.333v1.333Z"/>
  </g>
</svg>
