<svg xmlns="http://www.w3.org/2000/svg" fill="none" viewBox="0 0 31 31">
  <mask id="a" width="31" height="31" x="0" y="0" maskUnits="userSpaceOnUse" style="mask-type:alpha">
    <path fill="coral" d="M.75.5h30v30h-30z"/>
  </mask>
  <g mask="url(#a)">
    <path fill="#2D3436" d="M5.813 26.75c-.375 0-.688-.125-.938-.375a1.272 1.272 0 0 1-.375-.938v-5.062c0-.292.094-.547.281-.766.188-.219.427-.359.719-.422l4.313-.875c.291-.041.588-.015.89.078.302.094.547.235.735.422l2.937 2.938a23.32 23.32 0 0 0 4.36-3.406c1.323-1.313 2.421-2.719 3.296-4.219L19 11.062a1.283 1.283 0 0 1-.36-.64 2.253 2.253 0 0 1-.015-.797l.813-4.375a1.1 1.1 0 0 1 .406-.719 1.2 1.2 0 0 1 .781-.281h5.063c.375 0 .687.125.937.375s.375.563.375.938c0 2.687-.6 5.307-1.797 7.858a23.803 23.803 0 0 1-4.75 6.782 23.81 23.81 0 0 1-6.78 4.75C11.12 26.15 8.5 26.75 5.812 26.75Zm17.406-15c.354-.813.625-1.635.812-2.469.188-.833.334-1.677.438-2.531h-2.782l-.53 2.938 2.062 2.062ZM12.03 22.938l-2.094-2.094L7 21.437v2.75a15.257 15.257 0 0 0 2.547-.406c.844-.208 1.672-.49 2.484-.843Z"/>
  </g>
</svg>
