<svg xmlns="http://www.w3.org/2000/svg" fill="none" viewBox="0 0 100 100">
  <mask id="a" width="100" height="100" x="0" y="0" maskUnits="userSpaceOnUse" style="mask-type:alpha">
    <path fill="#FAFAFA" d="M0 0h100v100H0z"/>
  </mask>
  <g mask="url(#a)">
    <path fill="#636E72" d="M66.667 79.167V87.5c0 1.18-.399 2.17-1.196 2.967-.8.8-1.79 1.2-2.97 1.2h-50c-1.181 0-2.17-.4-2.967-1.2-.8-.797-1.2-1.786-1.2-2.967V54.167c0-1.18.4-2.171 1.2-2.971C10.33 50.399 11.32 50 12.5 50H25V33.334c0-6.945 2.43-12.848 7.292-17.709 4.86-4.86 10.764-7.291 17.708-7.291h16.667c6.944 0 12.847 2.43 17.708 7.291 4.861 4.861 7.292 10.764 7.292 17.709v58.333h-8.334v-12.5H66.668Zm0-8.334h16.666v-37.5c0-4.583-1.631-8.506-4.895-11.77-3.264-3.264-7.188-4.896-11.771-4.896H50c-4.583 0-8.507 1.632-11.77 4.896-3.265 3.264-4.896 7.187-4.896 11.77V50H62.5c1.18 0 2.171.399 2.971 1.196.797.8 1.196 1.79 1.196 2.97v16.668Zm-25-29.166v-8.334H75v8.334H41.667ZM37.5 70.208l20.834-11.874H16.666L37.5 70.207Zm0 7.292L16.667 65.625v17.709h41.666V65.624L37.5 77.5Z"/>
  </g>
</svg>
