<svg xmlns="http://www.w3.org/2000/svg" fill="none" viewBox="0 0 30 30">
  <g clip-path="url(#a)">
    <path fill="#fff" d="M0 0h30v30H0V0Zm27.543 22.845c-.22-1.369-1.11-2.519-3.754-3.591-.92-.431-1.943-.732-2.247-1.425-.113-.413-.13-.638-.057-.881.188-.808 1.144-1.05 1.894-.826.487.15.937.526 1.22 1.125 1.292-.845 1.292-.845 2.194-1.406-.338-.525-.505-.751-.733-.975-.787-.881-1.836-1.331-3.543-1.292l-.88.111c-.846.206-1.65.656-2.138 1.256-1.425 1.614-1.014 4.426.711 5.589 1.706 1.275 4.201 1.555 4.52 2.756.3 1.463-1.088 1.931-2.457 1.763-1.014-.225-1.575-.733-2.194-1.67l-2.288 1.313c.263.6.563.862 1.013 1.387 2.175 2.195 7.612 2.082 8.588-1.255.037-.113.3-.882.093-2.063l.058.084Zm-11.23-9.056h-2.81c0 2.422-.01 4.83-.01 7.256 0 1.54.078 2.954-.173 3.389-.412.861-1.475.751-1.957.6-.495-.245-.747-.583-1.038-1.069-.079-.131-.137-.245-.159-.245l-2.281 1.406c.381.788.938 1.465 1.655 1.896 1.069.638 2.505.844 4.009.507.979-.283 1.822-.864 2.264-1.764.637-1.163.502-2.588.496-4.183.015-2.567 0-5.136 0-7.723l.005-.07Z"/>
  </g>
  <defs>
    <clipPath id="a">
      <path fill="#fff" d="M0 0h30v30H0z"/>
    </clipPath>
  </defs>
</svg>
