<svg width="16" height="16" viewBox="0 0 16 16" fill="none" xmlns="http://www.w3.org/2000/svg">
<mask id="mask0_528_164" style="mask-type:alpha" maskUnits="userSpaceOnUse" x="0" y="0" width="16" height="16">
<rect width="16" height="16" fill="#636E72"/>
</mask>
<g mask="url(#mask0_528_164)">
<path d="M3.33333 14.6667C2.96667 14.6667 2.65267 14.5363 2.39133 14.2754C2.13044 14.014 2 13.7 2 13.3334V4.00004C2 3.63337 2.13044 3.3196 2.39133 3.05871C2.65267 2.79737 2.96667 2.66671 3.33333 2.66671H4V1.33337H5.33333V2.66671H10.6667V1.33337H12V2.66671H12.6667C13.0333 2.66671 13.3473 2.79737 13.6087 3.05871C13.8696 3.3196 14 3.63337 14 4.00004V13.3334C14 13.7 13.8696 14.014 13.6087 14.2754C13.3473 14.5363 13.0333 14.6667 12.6667 14.6667H3.33333ZM3.33333 13.3334H12.6667V6.66671H3.33333V13.3334ZM3.33333 5.33337H12.6667V4.00004H3.33333V5.33337Z" fill="#636E72"/>
</g>
</svg>
