<svg width="31" height="31" viewBox="0 0 31 31" fill="none" xmlns="http://www.w3.org/2000/svg">
<g clip-path="url(#clip0_301_605)">
<path d="M15.25 0.871094C6.9625 0.871094 0.25 7.58734 0.25 15.8711C0.25 22.4998 4.5475 28.1211 10.5063 30.1023C11.2563 30.2436 11.5312 29.7798 11.5312 29.3811C11.5312 29.0248 11.5188 28.0811 11.5125 26.8311C7.34 27.7361 6.46 24.8186 6.46 24.8186C5.7775 23.0873 4.79125 22.6248 4.79125 22.6248C3.4325 21.6948 4.89625 21.7136 4.89625 21.7136C6.4025 21.8186 7.19375 23.2586 7.19375 23.2586C8.53125 25.5523 10.705 24.8898 11.5625 24.5061C11.6975 23.5361 12.0838 22.8748 12.5125 22.4998C9.18125 22.1248 5.68 20.8348 5.68 15.0873C5.68 13.4498 6.26125 12.1123 7.22375 11.0623C7.055 10.6836 6.54875 9.15859 7.355 7.09234C7.355 7.09234 8.61125 6.68984 11.48 8.62984C12.68 8.29609 13.955 8.13109 15.23 8.12359C16.505 8.13109 17.78 8.29609 18.98 8.62984C21.83 6.68984 23.0862 7.09234 23.0862 7.09234C23.8925 9.15859 23.3862 10.6836 23.2362 11.0623C24.1925 12.1123 24.7738 13.4498 24.7738 15.0873C24.7738 20.8498 21.2675 22.1186 17.93 22.4873C18.455 22.9373 18.9425 23.8573 18.9425 25.2623C18.9425 27.2698 18.9237 28.8823 18.9237 29.3698C18.9237 29.7636 19.1863 30.2323 19.955 30.0823C25.9562 28.1148 30.25 22.4898 30.25 15.8711C30.25 7.58734 23.5338 0.871094 15.25 0.871094Z" fill="#2D3436"/>
</g>
<defs>
<clipPath id="clip0_301_605">
<rect width="30" height="30" fill="white" transform="translate(0.25 0.5)"/>
</clipPath>
</defs>
</svg>
