<svg width="80" height="80" viewBox="0 0 80 80" fill="none" xmlns="http://www.w3.org/2000/svg">
<mask id="mask0_301_628" style="mask-type:alpha" maskUnits="userSpaceOnUse" x="0" y="0" width="80" height="80">
<rect width="80" height="80" fill="#FAFAFA"/>
</mask>
<g mask="url(#mask0_301_628)">
<path d="M53.3334 63.3337V70.0003C53.3334 70.9448 53.0145 71.7359 52.3768 72.3737C51.7368 73.0137 50.9445 73.3337 50.0001 73.3337H10.0001C9.05564 73.3337 8.26453 73.0137 7.62675 72.3737C6.98675 71.7359 6.66675 70.9448 6.66675 70.0003V43.3337C6.66675 42.3892 6.98675 41.597 7.62675 40.957C8.26453 40.3192 9.05564 40.0003 10.0001 40.0003H20.0001V26.667C20.0001 21.1114 21.9445 16.3892 25.8334 12.5003C29.7223 8.61144 34.4445 6.66699 40.0001 6.66699H53.3334C58.889 6.66699 63.6112 8.61144 67.5001 12.5003C71.389 16.3892 73.3334 21.1114 73.3334 26.667V73.3337H66.6668V63.3337H53.3334ZM53.3334 56.667H66.6668V26.667C66.6668 23.0003 65.3612 19.8614 62.7501 17.2503C60.139 14.6392 57.0001 13.3337 53.3334 13.3337H40.0001C36.3334 13.3337 33.1945 14.6392 30.5834 17.2503C27.9723 19.8614 26.6667 23.0003 26.6667 26.667V40.0003H50.0001C50.9445 40.0003 51.7368 40.3192 52.3768 40.957C53.0145 41.597 53.3334 42.3892 53.3334 43.3337V56.667ZM33.3334 33.3337V26.667H60.0001V33.3337H33.3334ZM30.0001 56.167L46.6667 46.667H13.3334L30.0001 56.167ZM30.0001 62.0003L13.3334 52.5003V66.667H46.6667V52.5003L30.0001 62.0003Z" fill="#636E72"/>
</g>
</svg>
