<svg width="16" height="16" viewBox="0 0 16 16" fill="none" xmlns="http://www.w3.org/2000/svg">
  <mask id="mask0_131_243" style="mask-type:alpha" maskUnits="userSpaceOnUse" x="0" y="0" width="16" height="16">
  <rect width="16" height="16" fill="#D9D9D9"/>
  </mask>
  <g mask="url(#mask0_131_243)">
  <path d="M8 11.3333C8.18889 11.3333 8.34733 11.2693 8.47533 11.1413C8.60289 11.0137 8.66667 10.8555 8.66667 10.6666C8.66667 10.4777 8.60289 10.3193 8.47533 10.1913C8.34733 10.0637 8.18889 9.99992 8 9.99992C7.81111 9.99992 7.65289 10.0637 7.52533 10.1913C7.39733 10.3193 7.33333 10.4777 7.33333 10.6666C7.33333 10.8555 7.39733 11.0137 7.52533 11.1413C7.65289 11.2693 7.81111 11.3333 8 11.3333ZM7.33333 8.66658H8.66667V4.66658H7.33333V8.66658ZM8 14.6666C7.07778 14.6666 6.21111 14.4915 5.4 14.1413C4.58889 13.7915 3.88333 13.3166 3.28333 12.7166C2.68333 12.1166 2.20844 11.411 1.85867 10.5999C1.50844 9.78881 1.33333 8.92214 1.33333 7.99992C1.33333 7.0777 1.50844 6.21103 1.85867 5.39992C2.20844 4.58881 2.68333 3.88325 3.28333 3.28325C3.88333 2.68325 4.58889 2.20814 5.4 1.85792C6.21111 1.50814 7.07778 1.33325 8 1.33325C8.92222 1.33325 9.78889 1.50814 10.6 1.85792C11.4111 2.20814 12.1167 2.68325 12.7167 3.28325C13.3167 3.88325 13.7916 4.58881 14.1413 5.39992C14.4916 6.21103 14.6667 7.0777 14.6667 7.99992C14.6667 8.92214 14.4916 9.78881 14.1413 10.5999C13.7916 11.411 13.3167 12.1166 12.7167 12.7166C12.1167 13.3166 11.4111 13.7915 10.6 14.1413C9.78889 14.4915 8.92222 14.6666 8 14.6666ZM8 13.3333C9.48889 13.3333 10.75 12.8166 11.7833 11.7833C12.8167 10.7499 13.3333 9.48881 13.3333 7.99992C13.3333 6.51103 12.8167 5.24992 11.7833 4.21658C10.75 3.18325 9.48889 2.66659 8 2.66659C6.51111 2.66659 5.25 3.18325 4.21667 4.21658C3.18333 5.24992 2.66667 6.51103 2.66667 7.99992C2.66667 9.48881 3.18333 10.7499 4.21667 11.7833C5.25 12.8166 6.51111 13.3333 8 13.3333Z" fill="#AC0000"/>
  </g>
</svg>
